<svg xmlns="http://www.w3.org/2000/svg" viewBox="0 0 852.19 609"><g id="b7bf9839-1943-4741-a7e5-00f155d956a3" data-name="Ebene 2"><g id="b6c7271d-028b-4e26-8e45-ca6fb6031c07" data-name="Ebene 1"><path d="M800,458c13-18,30.22,25.92,29,4,11.35-.29,14.6,16.57,22,20,2.29-21.29-19.63-34.81-22-47,8.45.69,14.79,23,22,27,.29-16.08,2-26.23-8-38,4.5-3,5.51,4.54,8,7-1.54-14.51,5.07-30.49-7-41,5.24-40.05-2.88-88.46-18-124C762.09,156.18,712.07,121.93,594,83c-40.12-26.41-63.1-72.77-114-83,14,8.73,78.28,49.07,35,37,63.56,36.81,93,107.24,131,171,11.21,33.7,41.42,67.81,46,92-48.55,4.63-100.16,77.8-133,63,16.91-18.41,46.14-36.53,71-52C750.11,259.31,457.81,43,365,46c118.6,31.3,219.66,126.76,279,224,30.34,26.73-3.11,5.64-65,50-18.72,15.17-43.14,35.67-66,47-4,13.05-17,21.75-30,28-28,30.93-62,57-90,89-24,32.25-6.36,19.66,10-1,7.46-9.36,55.27-26.2,39-28,.25-11.55,11.22-11.63,20-16,6-10.87,13.06-18.26,26-21,2.87-12.75,15.47-10.53,22-24,13.41-2.05,19.19-18.17,32-24,49.2-11.57,8.35,30.37-12,33,3.92,11.87-11,8.12-18,12,12.81,7.45-6.6,15.34-18,15,17.66,13.29-30.08,12.74-33,25-4.65-.14-13.72-6.58-8,1,31.26-4.57,26.14,5.18,2,17-2.86,21.1-28.27,29.48-40,43,8.2-.55,24.11-12.82,31-17,25.05-12.76,55.61-25.56,77-42-61.9,5.28-9.34-13.26,21-10,28.62-13.45,17,8.28-1,16-9.4,9.11-67.37,50.41-39,43-14.16,29.94-.82,4,17,0-1,8.68-16.19,29.47-22,34,13.41,3.61,44.46-32.6,63-43,4.49,10-25.4,28.7-30,43,27.1-4.16,69.09-55.55,98-78,11.1-11.33,21.88-33.08,40-32-4-13,16.39-5,19-1-34.08,18.25-62.45,56.12-94,83-16.87,13.11-23.44,28.63-1,9,11.07-1-12,25.79-15,28,35.47-17.93,64.91-87.56,112-98-18.73,36-43.52,69.54-64,104,37.06-14.11,75.5-154.4,123-117,5.38-2.61-8.18-9.63-10-14,7.32-.55,36,13.88,29,23-21.74,1.24-21.87,28-42,36-13.73,3.4,11.13-32.88,12-36-14.35-17.91-36.5,54.75-46,68-22.65,16.12-4,20.93-19,44,20.7-16.28,25.15-61.42,57-62-4.06,20.73-17.26,45.18-28,65,19.34-12.78,34.88-58.64,50-82,44.69-28.14-23.25,74.5-30,88,23.43-19.86,54.06-71.75,66-107C791.07,458.36,797.41,453.86,800,458ZM473,473a18.83,18.83,0,0,0,5-3C490.4,467.92,472.83,479.85,473,473Zm59,38c6.6-12.76,20-18.92,28-30C563.29,488.14,539.33,506.69,532,511ZM815,318c8.85,9,15,41.54,18,58C810.77,369.33,811.25,336.37,815,318Zm-2,60c9.87.31,12.37,12,18,18C828.1,411.14,801.17,382.58,813,378Zm-2,35c-7.26-1.29-26.27-16.82-18-23C801.05,388.55,817.81,406.06,811,413ZM784,305c-19.9-13-15.79-52.68-27-74-5.07-12-21.19-34.48-22-47C772.28,199.78,775.51,274.35,784,305Zm15,49c-18.23-4.39-30.75-19.52-20-36C787.46,325,798.34,343.68,799,354Zm-36-28c-34,1.28-24.25-42.85-28-65C746.55,279.76,752.36,306.14,763,326Zm-3,16c-17.22,11.84-47.3-3.51-20-18C748.57,322.17,762.59,333.52,760,342ZM735,168c-13,10.41-38.72-29.9-48-40C709.45,131.51,721.22,155,735,168Zm-21,34c-2.52,2.71-3-2.14-4-4C711.87,199,716.69,199.45,714,202Zm-6-14a30.86,30.86,0,0,1,6,9C708.7,196.06,708.34,192.75,708,188Zm-2-4c-3.61,4.6-20.2-27.89-25-34C693.14,151.83,699,174.87,706,184Zm-36-48c-11.84-6.12-31-18.57-38-31C643.76,109.48,667.07,122.37,670,136Zm41,168c-26.23-73.91-64.05-142-110-205,78.38,37.37,99.76,158.64,128,216,0,7.62-6.1,4.24-12,6-7.32,3.34-13.78,9-22,10-17.91,14.52-38.29,39.73-63,30C608.91,356.47,700.26,309,711,304Zm14,53c-12.27.42-18.75-10-8-15C725.74,341.46,733.36,352.17,725,357Zm-43,15c1.41-8.9,10.75-10.87,16-16C728.08,357.31,696.73,388.08,682,372Zm-67-8c11.77,1.38,32.06,1.39,26,12C632.31,378.27,600.59,374.5,615,364Zm-22,15c35.39-1.39,40.64,26.61,3,15C577,395.19,578.79,384.77,593,379Zm-17,15c11.59,2.48,28.81,1.17,33,10C603.87,410.91,545.39,402.48,576,394Zm-21,13c13.92,1,38.43-.36,41,9C593.25,417.87,547,418.44,555,407Zm8,73c.34-.67.67-1.34,1-2C564,478,564.74,478.6,563,480Zm-14-43c-6.73-.67-34.12,4.07-24-6C545,432.07,587,433.62,549,437Zm-8-19c14.29,1.05,41.11-.68,44,9C581.89,428.87,518.78,430.34,541,418Zm45,41c-1.46.35-.91-1-1-2C586.46,456.64,585.91,458,586,459Zm28-20c-1.68.7-23.62,16.37-25,18-3.75-3.4,8.62-22,17-21C606.65,417.52,649.69,438.78,614,439Zm5-16c3.3-9.31,15.07.49,21,0C639.84,433.64,623.09,425.68,619,423Zm30-5c-6.13-1.58-19.66-1.68-16-9C641,409.56,652,410.72,649,418Zm-3-20c7.76,0,14,1.84,16,8C657.44,411.78,636,404.81,646,398Zm20-16c6.92-.59,16,.67,17,8C675,390.45,663.14,390,666,382Zm31,42c-6.78-.4-17.39-3.36-12-9C690,417,699.61,418.47,697,424Zm20-15c-6.09-1.13-12.12-3.1-13-8C708.85,400.18,719.24,403.53,717,409Zm12-27c6.09-1,9.87,6.66,15,9C740.2,406.55,709.82,387.43,729,382Zm28,2c-6.94.13-18.15-8.76-11-13C751.77,372.14,761,378.57,757,384Zm8-27c7.27-1.45,10.17,6.88,15,11C777.24,385.46,747,363.37,765,357Zm-5,53c9.65,1.61,17.93,9.22,19,17C773,422.05,757.69,417.87,760,410Zm18-7c2.7.92,2.93,1.71,5,3C783.69,410.88,777,405.83,778,403Zm1-52c7.85-1.2,21,9.27,23,17C791.74,369.68,783,359.82,779,351ZM467,386c53.79-40,111.49-88,169-116C564.67,179.11,470.63,84.57,341,74,451,99,539.87,179.63,608,262c25.72,8-13.33,14.1-23,19-56,27-101.88,70.6-145,114-20.64,24.78-61.44,54.18-63,84C403.23,443.75,437.31,417.34,467,386ZM592,256c-10.74-.45-14.74-8.58-18-18-23.43-34.25-59.49-56.46-93-80-47.18-42-253.12-72.13-121-42,86.26,23.7,151.68,89.75,218,138-94.73,34.06-175.62,107-257,163-92.14,82.35,190.26-121,216-128C554.22,277.48,579,271.79,592,256ZM258,106c65,15,196.61,83.32,268,136C525,187,321.82,102.77,258,106ZM478,233C404.17,162.7,289.78,126.81,184,120c97.26,20,187.21,63.16,277,108-75.36,30-147.8,73.66-211,127-86.78,55.47-82.22,70.66,3,6C331,322.85,396.75,264.66,478,233ZM203,371c28.05-31,267.17-138.16,198-160-76.28-38.51-164-68.24-252-62,5.86,5.07,19.21,1.87,28,4,80.83,12.67,156.62,45.7,231,74-63.62,30.91-133.19,78-190,121-15.38,15.09-37.63,27.26-47,49C179.2,398.75,192.22,376.21,203,371ZM136,173c-68,3.57,122.81,16.72,147,35,101.42,23.56,89.05,15,5,55C258.8,278.73,96.32,403.53,138,384c80.94-48.53,152.76-108.2,237-154C309.78,190.31,224.62,174.87,136,173Zm-16,21c-28.21,1.69-60.85,3.34-90,7,34,3.67,71.09-.5,106,1,26.17,5.95,222.33,20.47,160,38-78.1,32.49-149.71,86.38-215,136,79.46-35.07,147.09-89.15,224-129C390.38,212.48,158.31,191.31,120,194Zm53,22c-44.47,1.13-107.74,5.23-154,19,76.44-8.62,163.88-9.65,245-2-59.78,34.86-146.76,64.76-196,121,68.84-32.82,133.87-79.31,202-114C297.38,218.86,192,221.17,173,216Zm-21,21C109.4,243.88,29.4,250.33,0,283c17.06-9.84,150.77-42.7,123-25-17.36-2.82-166.37,93.11-104,71,53.07-20,95.76-44.16,150-66C258.26,233.6,203.87,234.69,152,237Zm361,1c-98.94,19.68-178,104.65-259,163C182.18,467,422.37,289.06,454,279,466,263.57,506.62,253.24,513,238Zm39,8c-47.45,5.67-87,35.49-123,54-50.67,41.13-112.78,75.77-162,122,4.75,5.7,17.34-9.13,23-12C375.18,353.77,470.51,303.78,552,246ZM485,432c3.15-.73-1.61-1.34-3-1C484,433,482.86,432.46,485,432Zm-16,0c-1.77.71-2.35,1.8-2,4C475.14,435.29,480.77,433.53,469,432ZM296,446c2.49-1.48,1.18.24,2-3C294.37,442.79,293.42,442.85,296,446Zm-6,0c-1.65,2.62-2.22,4,1,5C292.93,449.18,291.47,447,290,446Zm169,3c1,.8.25.36,2,1C461.35,448.53,460,449.08,459,449Zm74,7c-26.63,17.26-55.15,38.26-74,63C478.91,502.1,530.44,472.77,533,456Zm273,5c-16.91,40.08-37,80.75-56,119C764.13,559.39,832.45,477.28,806,461Zm27,12c-10.4,37.53-19.53,86-40,120C812.25,571,858,495.41,833,473Zm17,70c-6.15,26.51-21.79,45.87-26,66C835.5,590.74,859.54,566.92,850,543Z" style="fill-rule:evenodd"/></g></g></svg>