<svg xmlns="http://www.w3.org/2000/svg" viewBox="0 0 797.31 639.63"><g id="ef277321-322a-4214-aa8a-28f09ba42d51" data-name="Ebene 2"><g id="fcafc961-bc6f-4b56-9d6e-6e78894c67d0" data-name="Ebene 1"><path d="M650,526.88s-234.42-324.2-317-394S526.05,432,650,526.88Z" style="fill-rule:evenodd"/><path d="M769.4,399.63s-350.73-239.37-451.64-288C317.76,111.63,445.68,254.51,769.4,399.63Z" style="fill-rule:evenodd"/><path d="M279.36,52.47s237.76,86.36,517.95,247.45C797.31,299.92,465.77,174.14,279.36,52.47Z" style="fill-rule:evenodd"/><path d="M317.76,139.53S473.59,409.85,502.61,532C502.61,532,368.44,332.65,317.76,139.53Z" style="fill-rule:evenodd"/><path d="M279.36,52.47s87.51,275.72,130.82,407.44,37.73,179.72,37.73,179.72-44.65-151.82-60.28-197.58S273.77,187.53,279.36,52.47Z" style="fill-rule:evenodd"/><path d="M194.52,52.47S308.38,384,312.84,543.63C312.84,543.63,216.84,283.53,194.52,52.47Z" style="fill-rule:evenodd"/><path d="M296.1,32.37S526.05,87.29,783.91,208.86c0,0-269-164.21-448.74-203.28C335.17,5.58,228,1.75,296.1,32.37Z" style="fill-rule:evenodd"/><path d="M228,38S353,370.6,375.36,526.88C375.36,526.88,253.68,218.79,228,38Z" style="fill-rule:evenodd"/><path d="M134.24,15.63s89.3,261.21,93.77,425.3C228,440.93,119.73,178.6,134.24,15.63Z" style="fill-rule:evenodd"/><path d="M98.52,0S90.26,144,132.9,330.42C132.9,330.42,47.17,93.77,98.52,0Z" style="fill-rule:evenodd"/><path d="M20.38,99.91s52.45,22.9,148.18,103C168.56,202.88,87.36,180.28,20.38,99.91Z" style="fill-rule:evenodd"/><path d="M20.38,139.53s82.52,48,154.88,120.28C175.26,259.81,110,238.6,20.38,139.53Z" style="fill-rule:evenodd"/><path d="M20.38,176.19s99,74.53,165.46,146.47C185.84,322.66,4.07,202.77,20.38,176.19Z" style="fill-rule:evenodd"/><path d="M32.1,228.28s88.51,59.42,168.38,138.63C200.48,366.91,33.33,272.3,32.1,228.28Z" style="fill-rule:evenodd"/><path d="M49.68,276.56S116,338.5,213.77,429.77C213.77,429.77,111.63,366.14,49.68,276.56Z" style="fill-rule:evenodd"/><path d="M32.1,303.35s97.45,66.14,148.35,126.42c0,0-74.68-92.93-130.77-141.49S32.1,303.35,32.1,303.35Z" style="fill-rule:evenodd"/><path d="M19.21,322.66c.65-1,69.32,30.92,161.24,147.29,0,0-88.91-64.46-130.77-106.32S6.31,342,19.21,322.66Z" style="fill-rule:evenodd"/><path d="M32.1,366.91S89,418.05,120.84,505.12c0,0-48.55-98.8-100.46-119.73S32.1,366.91,32.1,366.91Z" style="fill-rule:evenodd"/></g></g></svg>