<svg id="Brand-Type" xmlns="http://www.w3.org/2000/svg" width="469.225" height="96.423" viewBox="0 0 469.225 96.423">
  <path id="Pfad_3" data-name="Pfad 3" d="M4142.019-54.945a51.556,51.556,0,0,1-6.468,6.879c-7.894,6.315-19.669,4.5-24.14-3.773-1.809-3.346-2.19-7.011-2.2-10.734q-.019-10.557,0-21.114c0-.7.009-1.394-.018-2.09-.163-4.2-1.169-5.413-5.256-6.187-1.038-.2-1.81-.333-1.793-1.724.015-1.25.374-1.845,1.621-2.159,4.586-1.158,9.138-2.449,13.719-3.628,2.9-.747,3.278-.425,3.279,2.447q0,16.305,0,32.611c0,.836,0,1.673.026,2.509.247,8.448,7.068,12.381,14.561,8.41a23.845,23.845,0,0,0,6.339-5.372,2.856,2.856,0,0,0,.551-2.15c0-8.014.026-16.028-.01-24.041-.021-4.936-.853-5.961-5.59-6.953-.98-.205-1.479-.506-1.442-1.586.035-1.011-.009-1.832,1.311-2.165,4.788-1.208,9.533-2.591,14.323-3.791,2.509-.629,2.863-.252,2.864,2.352q0,24.981-.008,49.963a30.519,30.519,0,0,1-1.475,10.7c-2.191,5.947-6.221,10.065-12.332,11.792-9.188,2.6-18.285,2.529-27.062-1.747a20.9,20.9,0,0,1-4.912-3.512c-1.012-.927-1.343-1.6.274-2.373,2.949-1.409,5.832-2.967,8.674-4.584,1.254-.713,1.7-.4,2.276.826,2.216,4.707,5.62,7.861,11.12,8.26a10.183,10.183,0,0,0,10.575-6.532,17.166,17.166,0,0,0,1.15-4.65A126.957,126.957,0,0,0,4142.019-54.945ZM3856.846-38.224c-1.094,7.748-6.3,11.485-13.674,10.036-4.543-.893-7.136-4.093-9.063-7.946-.58-1.159-.974-1.579-2.255-.847-2.9,1.657-5.855,3.216-8.848,4.7-1.355.67-1.123,1.262-.258,2.1a21.326,21.326,0,0,0,5.04,3.682c7.606,3.917,15.656,4.008,23.835,2.627,5.907-1,10.758-3.8,13.885-9.041,2.455-4.117,3.176-8.7,3.171-13.445q-.029-25.287-.007-50.574c0-2.994-.3-3.279-3.167-2.543-4.647,1.192-9.264,2.506-13.917,3.677-1.238.311-1.4.982-1.417,2.081-.014,1.161.443,1.508,1.526,1.723,4.526.9,5.532,2.136,5.551,6.789.033,8.08.009,16.161.013,24.242a2.755,2.755,0,0,1-.48,1.971c-2.39,2.773-4.991,5.275-8.607,6.371-6.547,1.986-11.4-1.13-12.261-7.873a30.047,30.047,0,0,1-.2-3.751c-.014-11.145-.049-22.292.035-33.437.013-1.727-.562-2.234-2.12-1.974-.546.091-1.094.183-1.628.325-4.235,1.124-8.46,2.281-12.7,3.378-1.256.325-2.272.5-2.2,2.313s1.274,1.54,2.257,1.744c3.325.689,4.491,1.929,4.8,5.316.083.9.058,1.809.062,2.714.039,8.08-.032,16.163.15,24.239a15.478,15.478,0,0,0,4.539,11.132c5.561,5.417,14.916,5.621,21.469.553,2.555-1.976,4.5-4.506,6.649-6.98C3857.2-49.309,3857.625-43.739,3856.846-38.224Zm147.711-52.7c0-8.779-.057-17.558.047-26.335.022-1.81-.532-2.388-2.214-2.082-.477.087-.959.155-1.427.278-4.44,1.164-8.865,2.391-13.325,3.476-1.3.317-1.566.954-1.587,2.17-.024,1.328.763,1.4,1.691,1.573,3.957.756,5.213,2.2,5.22,6.255q.042,24.767,0,49.534c-.005,3.977-.92,5.126-4.718,6.3a11.95,11.95,0,0,0-1.4.39c-1.345.607-.6,1.822-.721,2.767-.13.985.661.866,1.271.866q11.5.008,22.991,0c.518,0,1.218.163,1.231-.708.021-1.395.439-2.732-1.788-3.226-4.342-.964-5.265-2.421-5.268-6.93q-.009-13.062,0-26.125a3.041,3.041,0,0,1,.431-2.182,18.538,18.538,0,0,1,8.388-6.325c6.823-2.283,12.24,1.456,12.578,8.657.036.765.043,1.532.044,2.3q0,11.913,0,23.826c-.006,4.712-.587,5.6-5.2,6.948-1.848.54-1.062,1.827-1.164,2.85-.134,1.332.97.9,1.618.907,7.106.027,14.213.04,21.319-.017.717-.005,2.016.7,2.063-.888.036-1.226.469-2.485-1.577-2.959-4.6-1.066-5.468-2.413-5.474-7.2-.011-8.917.128-17.839-.085-26.751-.148-6.178-2.326-11.573-8.285-14.406-6.2-2.945-12.174-2.122-17.7,1.947-2.675,1.969-4.6,4.627-6.96,7.717ZM3816.536-45.759c.728-.009,2,.625,1.955-1-.028-1.167.479-2.568-1.545-2.716-3.592-.264-5.574-2.332-6.928-5.665-7.558-18.616-15.286-37.163-22.958-55.732-2.143-5.185-2.146-5.137-7.786-5.134a2.075,2.075,0,0,0-2.247,1.563q-5.359,13.129-10.831,26.213-7.051,16.946-14.13,33.879a7.233,7.233,0,0,1-6.431,4.9c-1.873.14-1.466,1.391-1.541,2.53-.1,1.563,1.007,1.185,1.828,1.187,6.616.017,13.233-.038,19.848.045,1.507.019,1.9-.466,1.828-1.888-.051-1.077-.241-1.655-1.457-1.712a21.057,21.057,0,0,1-3.5-.533c-4.264-.939-5.288-2.618-3.815-6.691,1.276-3.528,2.823-6.958,4.2-10.45a1.583,1.583,0,0,1,1.766-1.058c8.5.021,16.993.011,25.489.017.608,0,1.259-.106,1.56.691,1.519,4.026,3.655,7.829,4.535,12.082.545,2.634-.345,4-2.9,5a14.593,14.593,0,0,1-4.69.926c-1.81.077-1.354,1.318-1.44,2.361-.108,1.308.738,1.227,1.613,1.225,4.666-.012,9.332-.006,14-.006C3807.483-45.732,3812.01-45.7,3816.536-45.759ZM3765.377-72.6l12.2-29.72,12.156,29.72ZM3915.7-54.734v7.464c0,3.24.411,3.567,3.645,2.669,4.558-1.265,9.072-2.7,13.662-3.826,1.859-.458,1.533-1.62,1.549-2.831.02-1.537-1.145-1.072-1.948-1.111-3.69-.177-5.281-1.751-5.431-5.46-.036-.9-.029-1.811-.029-2.717q0-18.289,0-36.58c0-2.622-.387-3.039-2.845-2.42-4.854,1.224-9.67,2.6-14.511,3.878a1.384,1.384,0,0,0-1.223,1.4c-.14,1.467.374,2.051,1.87,2.333,3.955.745,5.037,1.863,5.115,5.856.165,8.5.107,17,.134,25.5a2.261,2.261,0,0,1-.482,1.559c-2.2,2.558-4.558,4.931-7.785,6.149-7.1,2.678-12.71-.939-13.174-8.454-.073-1.182-.1-2.367-.1-3.551-.007-10.939-.05-21.879.042-32.818.015-1.807-.693-2.162-2.181-1.939a15,15,0,0,0-1.624.346q-6.25,1.662-12.5,3.34c-1.168.313-2.462.28-2.436,2.172.027,1.869,1.352,1.652,2.413,1.9,3.328.778,4.512,2.005,4.681,5.425.155,3.129.087,6.268.107,9.4.037,5.782-.066,11.57.14,17.346.176,4.909,1.8,9.318,5.889,12.4,5.9,4.454,14.541,3.984,20.534-.949a41.167,41.167,0,0,0,5.958-6.629Zm278.551,7.927c0,2.614.142,2.738,2.7,2.4a7.275,7.275,0,0,0,1.022-.211c4.55-1.287,9.069-2.705,13.662-3.815,1.951-.472,1.678-1.674,1.652-2.969-.031-1.555-1.26-.98-2.018-1.028-3.49-.223-4.753-1.259-5.319-4.658a19.355,19.355,0,0,1-.2-3.117c-.024-6.9.114-13.8-.069-20.691-.191-7.223-2.934-13.145-9.7-16.578-8.3-4.217-21.518-2.123-28.113,4.388-4.178,4.124-5.318,9.636-3.079,14.537.462,1.01.961,1.349,2.057.922,2.4-.934,4.806-1.855,7.264-2.608,1.366-.419,1.541-.943,1-2.216a9.368,9.368,0,0,1-.081-7.895c2.916-6.219,12.134-6.535,16.3-.578a16.3,16.3,0,0,1,2.736,8.007c.477,5.079.46,5.081-4.415,6.132-.272.059-.551.091-.821.157-6.554,1.594-13.181,2.976-19.03,6.6-7.575,4.7-7.9,13.56-4.593,19.214,3.692,6.3,13.422,8.485,20.662,4.745,3.589-1.854,6-4.821,8.383-8.133Q4194.253-50.5,4194.254-46.807Zm0-14.829c0,6.127-6.994,11.638-12.954,10.209-4.881-1.171-7.254-6.284-5.539-11.881,1-3.246,3.335-5.229,6.268-6.583,3.486-1.61,7.249-2.373,10.934-3.37,1.1-.3,1.315.246,1.3,1.193-.035,2.086-.011,4.173-.011,6.259Q4194.254-63.722,4194.253-61.636Zm-113.294,15c-.167,2.076.692,2.571,2.485,2.258a14.353,14.353,0,0,0,1.429-.291c4.483-1.262,8.934-2.652,13.458-3.747,1.868-.452,1.8-1.549,1.758-2.912-.054-1.7-1.361-1.049-2.167-1.1-3.4-.229-4.782-1.408-5.225-4.756a26.47,26.47,0,0,1-.183-3.331c-.028-6.824.109-13.653-.085-20.472-.206-7.225-2.989-13.124-9.763-16.519-8.276-4.147-21.282-2.1-27.943,4.318-4.1,3.952-5.29,9.106-3.384,14.11.549,1.442,1.131,1.993,2.716,1.288a40.308,40.308,0,0,1,6.084-2.169c1.94-.511,2.235-1.265,1.514-3.163-1.532-4.036-.475-7.85,2.456-10.215a9.915,9.915,0,0,1,11-.36c4.261,2.7,5.413,7.038,5.8,11.671.352,4.178.288,4.184-3.728,5.047-.544.117-1.09.228-1.63.36-6.55,1.6-13.16,3-19.021,6.609-9.028,5.552-8.289,18.412-.665,23.233,5.46,3.453,11.239,3.221,16.942.581,3.585-1.66,5.858-4.758,8.2-7.925C4081.006-51.627,4081.158-49.118,4080.959-46.637Zm.047-14.927c0,6-6.935,11.505-12.818,10.177-4.858-1.1-7.3-6.013-5.765-11.6.991-3.6,3.568-5.687,6.822-7.1a76.766,76.766,0,0,1,10.355-3.147c1.164-.323,1.458.134,1.423,1.238-.065,2.016-.018,4.034-.018,6.052Q4081.007-63.756,4081.006-61.564ZM3973.9-47.492c9.6-5.614,10.791-20.313.573-26.4-3.448-2.052-7.259-3.145-10.993-4.453-3.148-1.1-6.361-2.041-9.227-3.824a6.563,6.563,0,0,1-3.292-7.09,6.593,6.593,0,0,1,4.886-5.427,11.486,11.486,0,0,1,10.563,1.338,15.207,15.207,0,0,1,5.577,6.867c.331.783.611,1.408,1.607.618,2.126-1.687,4.292-3.327,6.476-4.939.746-.55.748-1.008.2-1.7a14.73,14.73,0,0,0-4.668-3.791c-6.555-3.5-13.551-4.068-20.7-2.718-7.311,1.38-12.3,6.358-13.06,12.575-.909,7.478,1.747,11.925,9.39,15.62,3.263,1.577,6.759,2.556,10.144,3.819,2.6.969,5.323,1.638,7.627,3.305a7.98,7.98,0,0,1,.05,13.149c-3.745,2.724-9.368,2.611-13.512-.316a19.434,19.434,0,0,1-6.81-8.792c-.484-1.192-.911-1.334-1.883-.475-1.669,1.474-3.428,2.847-5.142,4.27-2.579,2.142-2.577,2.145-.151,4.432.1.1.206.188.311.279,5.587,4.847,12.226,6.674,21.308,6.857C3965.828-44.142,3970.006-45.215,3973.9-47.492Z" transform="translate(-3744.087 119.421)" fill="#6C665A"/>
</svg>
