<svg xmlns="http://www.w3.org/2000/svg" width="157" height="158" viewBox="0 0 157 158">
  <g id="IC-Activity" transform="translate(-1204 -3457.391)">
    <path id="Pfad_1977" data-name="Pfad 1977" d="M78.5,0C121.854,0,157,35.37,157,79s-35.146,79-78.5,79S0,122.63,0,79,35.146,0,78.5,0Z" transform="translate(1204 3457.391)" fill="#d1c2bb" opacity="0.672"/>
    <g id="Gruppe_45" data-name="Gruppe 45" transform="translate(1229.7 3484.969)">
      <g id="Gruppe_299" data-name="Gruppe 299" transform="translate(0 0)">
        <path id="Pfad_63" data-name="Pfad 63" d="M65.773,138.431A34.117,34.117,0,0,1,69.117,123.7a2.8,2.8,0,0,0-.7-3.739,47.658,47.658,0,0,0-7.609-5.972,3.427,3.427,0,0,0-3.769-.242c-6.8,3.245-14.152,4.494-21.614,5.22-1.051.1-2.283.184-2.394-1.2-.117-1.459,1.2-1.385,2.208-1.462a60.994,60.994,0,0,0,18.756-4.076c.524-.216,1.361-.143,1.381-.9.021-.792-.865-.659-1.36-.9a99.653,99.653,0,0,0-18.344-6.488,10.912,10.912,0,0,1-1.718-.506A1.344,1.344,0,0,1,33,101.85c.217-.844.951-.936,1.647-.814.924.162,1.824.456,2.733.7a101.251,101.251,0,0,1,19.691,7.246,2.959,2.959,0,0,0,3.5-.228,27.19,27.19,0,0,0,5.462-4.941c.528-.646,1.118-1.439,2.116-.68,1.115.848.4,1.589-.208,2.332a20.285,20.285,0,0,1-4.591,4.383c-1.848,1.181-1.462,1.827.217,2.908a37.053,37.053,0,0,1,9.584,8.674c7.468,9.821,6.228,21.461.029,31.09-1.161,1.8-2.2,1.857-3.45.1a22.287,22.287,0,0,1-3.952-14.185m6.048-14.314a35.526,35.526,0,0,0-3.552,15.707,19.612,19.612,0,0,0,1.971,8.489c.278.557.342,1.465,1.194,1.458s.89-.941,1.155-1.491a38.308,38.308,0,0,0,1.827-4.4c2.287-6.821,1.541-13.29-2.595-19.761" transform="translate(-18.271 -56.982)" fill="#fff"/>
        <path id="Pfad_64" data-name="Pfad 64" d="M125.265,63.259a57.592,57.592,0,0,0,10.393,4.468c3.557,1.214,7.192,2.212,10.8,3.28.929.275,2.058.506,1.772,1.7-.317,1.323-1.417,1.105-2.51.8-7.431-2.053-14.8-4.266-21.636-7.873a2.845,2.845,0,0,0-3.5.325,40.112,40.112,0,0,0-4.8,4.171c-.6.649-1.157,1.7-2.259.675-1.019-.95-.139-1.679.433-2.366a39.65,39.65,0,0,1,5.685-5.087,61.664,61.664,0,0,1-9.313-7.46c-9.674-9.745-9.2-23.614-2.2-33.788,1.235-1.795,2.179-1.592,3.286-.054,3.987,5.544,4.732,11.755,3.81,18.264A41.12,41.12,0,0,1,111.963,51.4a2.384,2.384,0,0,0,.545,3.111,51.017,51.017,0,0,0,8.668,6.676c1.126.714,1.858.291,2.806-.154a60.807,60.807,0,0,1,21.586-5.225c1.044-.077,2.581-.452,2.635,1.142.049,1.437-1.435,1.441-2.53,1.515a59.209,59.209,0,0,0-20.408,4.794M109.849,24.625a12.935,12.935,0,0,0-2.56,4.731c-2.36,6.34-2.415,12.633.608,18.811.324.663.606,1.649,1.354,1.708,1.024.082.868-1.081,1.12-1.714a31.26,31.26,0,0,0,2.217-16.02,14.59,14.59,0,0,0-2.739-7.516" transform="translate(-57.086 -11.754)" fill="#fff"/>
        <path id="Pfad_65" data-name="Pfad 65" d="M226.23,88.283a49.961,49.961,0,0,1-5.292,23.009,22.3,22.3,0,0,1-1.074,2c-.511.816-1.176,1.671-2.249.994-.916-.578-.491-1.443-.056-2.228a46.372,46.372,0,0,0,4.062-9.74A48.587,48.587,0,0,0,219.41,68.9c-.066-.154-.177-.289-.244-.442-.427-.982-1.267-2.22.206-2.8,1.411-.552,1.829.9,2.23,1.863a60.4,60.4,0,0,1,2.517,6.579c1.387,4.854,2.348,9.792,2.112,14.18" transform="translate(-120.353 -36.978)" fill="#fff"/>
        <path id="Pfad_66" data-name="Pfad 66" d="M87.488,225.7a52.149,52.149,0,0,1-23.3-5.339c-.461-.221-.909-.468-1.357-.714-.908-.5-2.021-1.008-1.267-2.264.682-1.135,1.611-.463,2.446-.017a48.21,48.21,0,0,0,9.256,3.7,51.289,51.289,0,0,0,35.139-2.187c.315-.132.607-.319.929-.429.875-.3,1.8-.373,2.189.619.352.9-.475,1.367-1.156,1.709a49.1,49.1,0,0,1-11.131,3.788A47.424,47.424,0,0,1,87.488,225.7" transform="translate(-33.997 -122.297)" fill="#fff"/>
        <path id="Pfad_67" data-name="Pfad 67" d="M89.977,0a50.172,50.172,0,0,1,19.8,4.706c.916.422,2.246.792,1.674,2.055-.636,1.407-1.793.638-2.847.2C93.594.731,78.784,1,64.2,8.318c-.852.427-1.9,1.379-2.628-.013-.77-1.468.684-1.89,1.587-2.359C70.874,1.93,79.128,0,89.977,0" transform="translate(-34.016)" fill="#fff"/>
        <path id="Pfad_68" data-name="Pfad 68" d="M0,89.434a55.018,55.018,0,0,1,4.141-20.7C4.406,68.113,4.68,67.5,5,66.9c.448-.838,1-1.782,2.137-1.294,1.239.534.652,1.489.26,2.35a50.1,50.1,0,0,0-3.322,9.489A47.931,47.931,0,0,0,8.428,111.41c.078.149.17.292.249.441.439.833,1.014,1.768-.1,2.43-1.15.684-1.705-.255-2.162-1.087A49.682,49.682,0,0,1,.676,96.35C.3,93.78.165,91.175,0,89.434" transform="translate(0 -36.942)" fill="#fff"/>
      </g>
    </g>
  </g>
</svg>
