<svg xmlns="http://www.w3.org/2000/svg" width="130.023" height="97.641" viewBox="0 0 130.023 97.641">
  <g id="IC-Calendar" transform="translate(1567.794 -5670.718)">
    <rect id="Rechteck_255" data-name="Rechteck 255" width="128.268" height="86.829" rx="12" transform="translate(-1566.916 5680.652)" fill="none" stroke="#d4c1ba" stroke-linecap="round" stroke-linejoin="round" stroke-width="1.756"/>
    <path id="Rechteck_256" data-name="Rechteck 256" d="M12,0H116.268a12,12,0,0,1,12,12v7.629a0,0,0,0,1,0,0H0a0,0,0,0,1,0,0V12A12,12,0,0,1,12,0Z" transform="translate(-1566.916 5680.652)" fill="#d4c1ba"/>
    <g id="Rechteck_257" data-name="Rechteck 257" transform="translate(-1544.801 5672.474)" fill="#fff" stroke="#d4c1ba" stroke-miterlimit="10" stroke-width="1.756">
      <rect width="7.308" height="16.356" rx="3.654" stroke="none"/>
      <rect x="-0.878" y="-0.878" width="9.064" height="18.112" rx="4.532" fill="none"/>
    </g>
    <g id="Rechteck_258" data-name="Rechteck 258" transform="translate(-1468.072 5672.474)" fill="#fff" stroke="#d4c1ba" stroke-miterlimit="10" stroke-width="1.756">
      <rect width="7.308" height="16.356" rx="3.654" stroke="none"/>
      <rect x="-0.878" y="-0.878" width="9.064" height="18.112" rx="4.532" fill="none"/>
    </g>
    <rect id="Rechteck_259" data-name="Rechteck 259" width="14.369" height="14.369" rx="4" transform="translate(-1548.332 5706.478)" fill="none" stroke="#d4c1ba" stroke-linecap="round" stroke-linejoin="round" stroke-width="1.756"/>
    <rect id="Rechteck_260" data-name="Rechteck 260" width="14.369" height="14.369" rx="4" transform="translate(-1529.149 5706.478)" fill="#d4c1ba"/>
    <rect id="Rechteck_261" data-name="Rechteck 261" width="14.369" height="14.369" rx="4" transform="translate(-1509.967 5706.478)" fill="none" stroke="#d4c1ba" stroke-linecap="round" stroke-linejoin="round" stroke-width="1.756"/>
    <rect id="Rechteck_262" data-name="Rechteck 262" width="14.369" height="14.369" rx="4" transform="translate(-1490.785 5706.478)" fill="none" stroke="#d4c1ba" stroke-linecap="round" stroke-linejoin="round" stroke-width="1.756"/>
    <rect id="Rechteck_263" data-name="Rechteck 263" width="14.369" height="14.369" rx="4" transform="translate(-1471.603 5706.478)" fill="none" stroke="#d4c1ba" stroke-linecap="round" stroke-linejoin="round" stroke-width="1.756"/>
    <rect id="Rechteck_264" data-name="Rechteck 264" width="14.369" height="14.369" rx="4" transform="translate(-1548.332 5725.032)" fill="none" stroke="#d4c1ba" stroke-linecap="round" stroke-linejoin="round" stroke-width="1.756"/>
    <rect id="Rechteck_265" data-name="Rechteck 265" width="14.369" height="14.369" rx="4" transform="translate(-1529.149 5725.032)" fill="none" stroke="#d4c1ba" stroke-linecap="round" stroke-linejoin="round" stroke-width="1.756"/>
    <rect id="Rechteck_266" data-name="Rechteck 266" width="14.369" height="14.369" rx="4" transform="translate(-1509.967 5725.032)" fill="none" stroke="#d4c1ba" stroke-linecap="round" stroke-linejoin="round" stroke-width="1.756"/>
    <rect id="Rechteck_267" data-name="Rechteck 267" width="14.369" height="14.369" rx="4" transform="translate(-1490.785 5725.032)" fill="none" stroke="#d4c1ba" stroke-linecap="round" stroke-linejoin="round" stroke-width="1.756"/>
    <rect id="Rechteck_268" data-name="Rechteck 268" width="14.369" height="14.369" rx="4" transform="translate(-1471.603 5725.032)" fill="none" stroke="#d4c1ba" stroke-linecap="round" stroke-linejoin="round" stroke-width="1.756"/>
    <rect id="Rechteck_269" data-name="Rechteck 269" width="14.369" height="14.369" rx="4" transform="translate(-1548.332 5743.814)" fill="none" stroke="#d4c1ba" stroke-linecap="round" stroke-linejoin="round" stroke-width="1.756"/>
    <rect id="Rechteck_270" data-name="Rechteck 270" width="14.369" height="14.369" rx="4" transform="translate(-1529.149 5743.814)" fill="none" stroke="#d4c1ba" stroke-linecap="round" stroke-linejoin="round" stroke-width="1.756"/>
    <rect id="Rechteck_271" data-name="Rechteck 271" width="14.369" height="14.369" rx="4" transform="translate(-1509.967 5743.814)" fill="none" stroke="#d4c1ba" stroke-linecap="round" stroke-linejoin="round" stroke-width="1.756"/>
    <rect id="Rechteck_272" data-name="Rechteck 272" width="14.369" height="14.369" rx="4" transform="translate(-1490.785 5743.814)" fill="#d4c1ba"/>
    <rect id="Rechteck_273" data-name="Rechteck 273" width="14.369" height="14.369" rx="4" transform="translate(-1471.603 5743.814)" fill="none" stroke="#d4c1ba" stroke-linecap="round" stroke-linejoin="round" stroke-width="1.756"/>
  </g>
</svg>
