<svg xmlns="http://www.w3.org/2000/svg" width="156.382" height="96.011" viewBox="0 0 156.382 96.011">
  <g id="IC-Consultations" transform="translate(1599.152 -5321.514)">
    <g id="v0FNDp.tif" transform="translate(-1536.149 5332.052)">
      <g id="Gruppe_600" data-name="Gruppe 600" transform="translate(0 0)">
        <path id="Pfad_1970" data-name="Pfad 1970" d="M-1419.541,5428.4q-21.88,0-43.76,0a9.842,9.842,0,0,1-1.288-.034c-1.172-.155-1.813-.928-1.5-2.051,1.344-4.77,2.21-9.711,4.129-14.274a23.4,23.4,0,0,1,13.326-13.139c5.047-1.994,10.12-3.921,15.179-5.882,2.137-.828,2.5-1.852,1.374-3.893-3.12-5.682-5.681-11.6-6.679-18.037-1.37-8.843.5-16.881,7.1-23.247a17.849,17.849,0,0,1,26.447,2.088c5.637,7.317,6.688,15.542,4.467,24.325a61.911,61.911,0,0,1-6.032,14.821c-1.163,2.1-.812,3.1,1.406,3.96,5.129,2,10.3,3.894,15.378,6.015a23.438,23.438,0,0,1,13.846,15.278c1.211,3.872,2.169,7.824,3.229,11.743.4,1.483-.162,2.275-1.7,2.315-1.68.044-3.363.012-5.045.012Z" transform="translate(1466.167 -5342.933)" fill="#d4c1ba"/>
      </g>
    </g>
    <g id="v0FNDp.tif-2" data-name="v0FNDp.tif" transform="translate(-1574.19 5330.678)">
      <g id="Gruppe_601" data-name="Gruppe 601" transform="translate(0)">
        <path id="Pfad_1971" data-name="Pfad 1971" d="M-1518.848,5391.723h-26.478a6,6,0,0,1-.779-.02c-.709-.094-1.1-.562-.906-1.242a73.06,73.06,0,0,1,2.5-8.637,14.157,14.157,0,0,1,8.063-7.95c3.054-1.206,6.123-2.373,9.185-3.559,1.293-.5,1.51-1.121.831-2.355a33.375,33.375,0,0,1-4.041-10.914c-.829-5.351.3-10.214,4.3-14.066a10.8,10.8,0,0,1,16,1.264c3.411,4.427,4.047,9.4,2.7,14.719a37.476,37.476,0,0,1-3.65,8.968c-.7,1.27-.491,1.873.851,2.4,3.1,1.209,6.233,2.355,9.305,3.64a14.18,14.18,0,0,1,8.377,9.244c.733,2.343,1.313,4.734,1.954,7.105.243.9-.1,1.376-1.026,1.4-1.017.027-2.035.007-3.052.007Z" transform="translate(1547.059 -5340.011)" fill="none" stroke="#d4c1ba" stroke-linecap="round" stroke-linejoin="round" stroke-width="2"/>
      </g>
    </g>
    <rect id="Rechteck_254" data-name="Rechteck 254" width="104.67" height="70.855" rx="12" transform="translate(-1598.274 5322.392)" fill="none" stroke="#d4c1ba" stroke-linecap="round" stroke-linejoin="round" stroke-width="1.756"/>
  </g>
</svg>
