<svg xmlns="http://www.w3.org/2000/svg" width="146.756" height="154.035" viewBox="0 0 146.756 154.035">
  <g id="IC-Constent" transform="translate(1631.435 -5901.85)">
    <rect id="Rechteck_274" data-name="Rechteck 274" width="129.285" height="87.518" rx="4" transform="translate(-1485.557 5902.728) rotate(90)" fill="none" stroke="#d4c1ba" stroke-linecap="round" stroke-linejoin="round" stroke-width="1.756"/>
    <circle id="Ellipse_212" data-name="Ellipse 212" cx="8.386" cy="8.386" r="8.386" transform="translate(-1558.692 5920.59)" fill="#d4c1ba"/>
    <line id="Linie_53" data-name="Linie 53" x2="32.331" transform="translate(-1533.27 5925.858)" fill="none" stroke="#d4c1ba" stroke-linecap="round" stroke-linejoin="round" stroke-width="2"/>
    <line id="Linie_54" data-name="Linie 54" x2="19.12" transform="translate(-1533.27 5932.807)" fill="none" stroke="#d4c1ba" stroke-linecap="round" stroke-linejoin="round" stroke-width="2"/>
    <path id="Pfad_1972" data-name="Pfad 1972" d="M-1496.16,5946.662l1.31,1.924,3.8-4.807" transform="translate(-56.7 -17.206)" fill="none" stroke="#fff" stroke-linecap="round" stroke-linejoin="round" stroke-width="3"/>
    <circle id="Ellipse_213" data-name="Ellipse 213" cx="8.386" cy="8.386" r="8.386" transform="translate(-1558.692 5943.803)" fill="#d4c1ba"/>
    <line id="Linie_55" data-name="Linie 55" x2="32.331" transform="translate(-1533.27 5949.071)" fill="none" stroke="#d4c1ba" stroke-linecap="round" stroke-linejoin="round" stroke-width="2"/>
    <line id="Linie_56" data-name="Linie 56" x2="19.12" transform="translate(-1533.27 5956.02)" fill="none" stroke="#d4c1ba" stroke-linecap="round" stroke-linejoin="round" stroke-width="2"/>
    <path id="Pfad_1973" data-name="Pfad 1973" d="M-1496.16,5986.625l1.31,1.924,3.8-4.806" transform="translate(-56.7 -33.957)" fill="none" stroke="#fff" stroke-linecap="round" stroke-linejoin="round" stroke-width="3"/>
    <circle id="Ellipse_214" data-name="Ellipse 214" cx="8.386" cy="8.386" r="8.386" transform="translate(-1558.692 5967.371)" fill="#d4c1ba"/>
    <line id="Linie_57" data-name="Linie 57" x2="32.331" transform="translate(-1533.27 5972.639)" fill="none" stroke="#d4c1ba" stroke-linecap="round" stroke-linejoin="round" stroke-width="2"/>
    <line id="Linie_58" data-name="Linie 58" x2="32.331" transform="translate(-1533.27 6010.103)" fill="none" stroke="#d4c1ba" stroke-linecap="round" stroke-linejoin="round" stroke-width="4"/>
    <line id="Linie_59" data-name="Linie 59" x2="19.12" transform="translate(-1533.27 5979.587)" fill="none" stroke="#d4c1ba" stroke-linecap="round" stroke-linejoin="round" stroke-width="2"/>
    <path id="Pfad_1974" data-name="Pfad 1974" d="M-1496.16,6027.2l1.31,1.924,3.8-4.806" transform="translate(-56.7 -50.963)" fill="none" stroke="#fff" stroke-linecap="round" stroke-linejoin="round" stroke-width="3"/>
    <line id="Linie_60" data-name="Linie 60" x2="35.381" transform="translate(-1534.795 6018.266)" fill="none" stroke="#d4c1ba" stroke-linecap="round" stroke-miterlimit="10" stroke-width="4" stroke-dasharray="0 10"/>
    <rect id="Rechteck_275" data-name="Rechteck 275" width="11.444" height="26.487" rx="5.722" transform="translate(-1578.523 6005.526)" fill="#fff"/>
    <g id="Gruppe_604" data-name="Gruppe 604" transform="translate(-1631.435 5999.917)">
      <path id="Pfad_1975" data-name="Pfad 1975" d="M-1591.207,6098.32l33.662-26.862a8.461,8.461,0,0,0-4.689-1.411h-57.945a8.464,8.464,0,0,0-4.69,1.411Z" transform="translate(1628.683 -6070.048)" fill="#d4c1ba"/>
      <path id="Pfad_1976" data-name="Pfad 1976" d="M-1591.741,6111.071a3.548,3.548,0,0,1-2.218.776,3.548,3.548,0,0,1-2.218-.776l-35.2-28.087a8.529,8.529,0,0,0-.059.989v38.961a8.5,8.5,0,0,0,8.5,8.5h57.945a8.5,8.5,0,0,0,8.5-8.5v-38.961a8.529,8.529,0,0,0-.059-.989Z" transform="translate(1631.435 -6075.47)" fill="#d4c1ba"/>
    </g>
  </g>
</svg>
