<svg xmlns="http://www.w3.org/2000/svg" width="169.084" height="169.084" viewBox="0 0 169.084 169.084">
  <g id="IC-Ether" transform="translate(-607.086 1299.704)">
    <circle id="Ellipse_43" data-name="Ellipse 43" cx="82.542" cy="82.542" r="82.542" transform="translate(609.086 -1297.704)" fill="none" stroke="#d1c2bb" stroke-linecap="round" stroke-linejoin="round" stroke-width="4"/>
    <path id="Pfad_101" data-name="Pfad 101" d="M753.481-1160.537a75.041,75.041,0,0,1-106.123,0,60.033,60.033,0,0,1,0-84.9,48.025,48.025,0,0,1,67.919,0,38.421,38.421,0,0,1,0,54.335,30.737,30.737,0,0,1-43.468,0,24.589,24.589,0,0,1,0-34.775,19.671,19.671,0,0,1,27.819,0,15.737,15.737,0,0,1,0,22.256,12.588,12.588,0,0,1-17.8,0,10.072,10.072,0,0,1,0-14.243" fill="none" stroke="#d1c2bb" stroke-linecap="round" stroke-linejoin="round" stroke-width="4"/>
  </g>
</svg>
