<svg xmlns="http://www.w3.org/2000/svg" xmlns:xlink="http://www.w3.org/1999/xlink" width="157" height="158" viewBox="0 0 157 158">
  <defs>
    <clipPath id="clip-path">
      <rect id="Rechteck_227" data-name="Rechteck 227" width="103.291" height="103.413" fill="none"/>
    </clipPath>
  </defs>
  <g id="IC-Lifestyle" transform="translate(-398 -3457.391)">
    <ellipse id="Ellipse_30" data-name="Ellipse 30" cx="78.5" cy="79" rx="78.5" ry="79" transform="translate(398 3457.391)" fill="#d1c2bb" opacity="0.418"/>
    <g id="Gruppe_48" data-name="Gruppe 48" transform="translate(425.04 3484.969)">
      <g id="Gruppe_296" data-name="Gruppe 296" transform="translate(0 0)" clip-path="url(#clip-path)">
        <path id="Pfad_75" data-name="Pfad 75" d="M102.367,49.839c-.38,16.779-6.057,30.945-19.042,41.72a38.7,38.7,0,0,1-19.536,8.459c-19.5,2.767-36.268-2.912-49.96-17.174A43.809,43.809,0,0,1,4.46,67.22C3.744,65.253,4.1,63.943,5.981,62.7c11.519-7.61,24.044-9.651,37.453-7.055a56.41,56.41,0,0,1,14.118,4.695c1.8.878,2.006.365,1.971-1.34-.233-11.536,2.325-22.336,8.719-32.074A48.18,48.18,0,0,1,82.23,13.083c2.086-1.376,3.585-1.413,5.513.5,10.144,10.075,14.527,22.373,14.625,36.254M80.382,90.524C67.7,86.711,55.531,83.052,43.362,79.387c-3.2-.964-6.4-1.933-9.584-2.939-.687-.218-1.521-.527-1.266-1.494.246-.928,1.063-.855,1.816-.725a8.236,8.236,0,0,1,.955.22q7.373,2.222,14.745,4.456,14.161,4.283,28.327,8.549c.656.2,1.5.752,2.049.064.46-.582-.282-1.2-.522-1.772a39.885,39.885,0,0,0-7.03-11.11C63.461,64.015,51.347,58.65,37.521,57.167A44.651,44.651,0,0,0,8.278,63.975c-1.547.975-1.828,1.987-1.169,3.644a39.2,39.2,0,0,0,7.024,11.963c14.539,16.161,32.49,21.892,53.692,17.1a30.574,30.574,0,0,0,12.558-6.157m-.089-9.337c.769-.846.479-1.522.475-2.138-.071-11.183-.185-22.365-.212-33.548,0-1.167-.765-3.228.916-3.315,2.019-.105,1.3,2.074,1.322,3.279.2,13.385.307,26.771.473,40.156.009.675-.418,1.66.448,1.976.8.3,1.243-.627,1.735-1.127C96.26,75.514,100.384,62.1,99.837,47.013A45.668,45.668,0,0,0,86.64,15.8c-1.284-1.324-2.275-1.391-3.76-.35C67.1,26.521,61.416,42.244,61.818,60.81a2.943,2.943,0,0,0,1.469,2.636A48.782,48.782,0,0,1,80.292,81.187" transform="translate(0.924 2.714)" fill="#6c665a"/>
        <path id="Pfad_76" data-name="Pfad 76" d="M24.374,22.286c-.336-6.69.2-7.052,6.322-4.28,13.4,6.067,20.727,18.4,19.773,33.193-.129,2-.78,2.506-2.794,1.826-14.281-4.818-22.542-15.651-23.3-30.739m23.7,24.072c-.944-12.671-7.5-21.333-18.987-26.45-2.224-.989-2.571-.787-2.464,1.635.556,12.51,6.038,21.924,17.483,27.522,4.046,1.979,4.27,1.8,3.967-2.707" transform="translate(5.454 3.676)" fill="#6c665a"/>
        <path id="Pfad_77" data-name="Pfad 77" d="M47.373,0a52.564,52.564,0,0,1,26.9,7.72,21.664,21.664,0,0,1,1.984,1.42.924.924,0,0,1,.336,1.281,1.073,1.073,0,0,1-1.455.514c-.655-.324-1.284-.7-1.915-1.074Q49.368-4.132,24.461,7.889c-.911.441-2.192,2.089-3.088.4-.828-1.561,1.057-1.958,2.019-2.464A52.453,52.453,0,0,1,47.373,0" transform="translate(4.751 0)" fill="#6c665a"/>
        <path id="Pfad_78" data-name="Pfad 78" d="M0,50.032C.144,35.011,5.445,22.61,15.749,12.313A12.31,12.31,0,0,1,17.2,11.006a1.236,1.236,0,0,1,1.773.089c.569.647.164,1.2-.337,1.686a62.169,62.169,0,0,0-5.805,6.286C4.108,30.329,1.2,43.1,2.873,57.07c.038.323.163.638.187.96.06.8-.109,1.529-1.047,1.627C1.139,59.749.992,59,.835,58.366a13.466,13.466,0,0,1-.442-2.158c-.175-2.2-.284-4.4-.393-6.176" transform="translate(0 2.396)" fill="#6c665a"/>
      </g>
    </g>
  </g>
</svg>
