<svg xmlns="http://www.w3.org/2000/svg" width="24.839" height="37.565" viewBox="0 0 24.839 37.565">
  <path id="IC-Location" d="M3165.285,6585.222a18.438,18.438,0,0,1-2.436,8.585c-3.218,5.476-6.484,10.921-9.721,16.385-.2.342-.3.418-.536.015-3.251-5.493-6.54-10.963-9.767-16.47a17.269,17.269,0,0,1-2.374-8.308,12.409,12.409,0,0,1,24.649-2.14A12.956,12.956,0,0,1,3165.285,6585.222Zm-12.461,6.082a5.969,5.969,0,1,0-5.944-5.972A5.967,5.967,0,0,0,3152.824,6591.3Z" transform="translate(-3140.446 -6572.914)" fill="#d4c1ba"/>
</svg>
