<svg xmlns="http://www.w3.org/2000/svg" width="30.092" height="22.47" viewBox="0 0 30.092 22.47">
  <g id="Gruppe_571" data-name="Gruppe 571" transform="translate(2163.999 -4178.216)">
    <path id="Pfad_1965" data-name="Pfad 1965" d="M-2138.905,4189.566l13.515-10.785a3.4,3.4,0,0,0-1.883-.566h-23.263a3.4,3.4,0,0,0-1.883.566Z" transform="translate(-10.048)" fill="#6c665a"/>
    <path id="Pfad_1966" data-name="Pfad 1966" d="M-2148.062,4212.3a1.426,1.426,0,0,1-.891.312,1.425,1.425,0,0,1-.891-.312l-14.131-11.276a3.447,3.447,0,0,0-.024.4v15.642a3.414,3.414,0,0,0,3.414,3.414h23.264a3.413,3.413,0,0,0,3.414-3.414v-15.642a3.447,3.447,0,0,0-.024-.4Z" transform="translate(0 -19.793)" fill="#6c665a"/>
  </g>
</svg>
