<svg xmlns="http://www.w3.org/2000/svg" xmlns:xlink="http://www.w3.org/1999/xlink" width="158" height="158" viewBox="0 0 158 158">

  <g id="IC-Nutrition" transform="translate(-935 -3457.391)">
    <circle id="Ellipse_33" data-name="Ellipse 33" cx="79" cy="79" r="79" transform="translate(935 3457.391)" fill="#d1c2bb"/>
    <g id="Gruppe_46" data-name="Gruppe 46" transform="translate(960.615 3484.969)">
      <g id="Gruppe_292" data-name="Gruppe 292" transform="translate(0 0)" clip-path="url(#clip-path)">
        <path id="Pfad_69" data-name="Pfad 69" d="M100.179,51.648A48.717,48.717,0,0,0,61.034,3.6C44.948.234,30.549,4.244,18.209,15.237c-.712.634-1.4,1.291-2.1,1.941s-1.55,1.03-2.265.2.132-1.429.64-1.967A47.967,47.967,0,0,1,31.773,3.777,51.093,51.093,0,0,1,90.356,18.4,51.376,51.376,0,0,1,92.27,82.855C82.2,96.024,68.75,103.116,51.949,103.4A49.555,49.555,0,0,1,16.881,90.378c-.657-.588-2.133-1.173-.9-2.423,1.133-1.151,1.9.123,2.593.733,11.561,10.228,25.193,14.23,40.194,11.741,18.58-3.084,31.384-13.982,38.375-31.521a46.113,46.113,0,0,0,3.038-17.259" transform="translate(4.057 0)" fill="#faf5f1"/>
        <path id="Pfad_70" data-name="Pfad 70" d="M17.511,58.884c-5.2,2.877-10.188,4.526-14.673-.318A11.8,11.8,0,0,1,1.726,44.745C5.434,39.117,10.689,40,16.377,42.086c-1.072-2.639-2.4-4.745-2.532-7.313-.262-5.176,2.9-9.377,8.034-10.069a12.915,12.915,0,0,1,6.669.373c5.441,2.185,7.42,6.816,5.571,13-.208.7-1.13,1.464-.349,2.091.7.564,1.411-.375,2.063-.688,5.458-2.617,10.054-1.79,12.908,2.4,3.4,4.985,2.824,11.419-1.355,15.113-2.764,2.443-6,2.319-9.3,1.635a33.737,33.737,0,0,1-3.341-1.087c2.436,5.7,4.75,11.292-1.554,15.6a11.529,11.529,0,0,1-12.762.374c-4.112-2.315-4.563-5.179-2.919-14.631M9.675,43.029a6,6,0,0,0-6.334,3.988,9.21,9.21,0,0,0,1.385,9.972c1.922,2.426,4.714,2.559,7.368,1.716,4.416-1.4,7.66-4.589,10.786-7.852.426-.444.857-1.011.14-1.537-4.042-2.96-8.033-6.045-13.345-6.287m38.708,5.783C48.4,42.117,43.573,38.8,37.468,41.4c-3.741,1.587-6.51,4.475-9.308,7.3-.912.921-.379,1.494.4,2.065a34.165,34.165,0,0,0,9.428,5.313c5.883,1.947,10.385-1.222,10.4-7.26M26.328,72.788c6.308.1,9.856-4.4,7.864-10.151-1.455-4.2-4.545-7.255-7.723-10.2-.857-.794-1.361-.245-1.885.417a31.491,31.491,0,0,0-5.1,8.631c-2.316,6.371.672,11.2,6.849,11.3m6.114-38.7c-.274-6.243-6.278-8.708-12.035-6.336-3.708,1.529-4.832,4.292-3.859,8.212,1.181,4.766,4.6,7.966,7.957,11.2a.986.986,0,0,0,1.589-.021c3.056-3.988,5.8-8.134,6.348-13.057" transform="translate(0 7.308)" fill="#faf5f1"/>
        <path id="Pfad_71" data-name="Pfad 71" d="M24.384,15.785c1.085.058,1.473.824,2.021,1.335,7.022,6.551,14.064,13.08,21.019,19.7,1.35,1.285,2.074,1.346,3.5-.031,6.288-6.066,12.73-11.974,19.15-17.9.682-.631,1.474-2.015,2.541-.934,1.178,1.194-.229,2-.99,2.717C65.39,26.54,59.153,32.41,52.848,38.207c-1.387,1.276-1.806,2.08-.113,3.546,3.529,3.056,6.893,6.309,10.219,9.589,1.017,1,1.563.89,2.515-.025,3.245-3.116,6.56-6.16,9.9-9.178.739-.669,1.424-2.31,2.655-1.189,1.334,1.216-.105,2.16-.939,2.941C69.686,50.806,62.246,57.672,54.861,64.6c-6.877,6.449-13.7,12.954-20.553,19.432-.629.595-1.255,1.192-1.919,1.746a1.218,1.218,0,0,1-1.837-.084c-.744-.736-.231-1.239.27-1.731,1.913-1.876,3.812-3.767,5.769-5.6,8.026-7.505,16.042-15.021,24.137-22.452,1.524-1.4,1.386-2.148-.09-3.512Q42.914,36.014,25.338,19.47a8.886,8.886,0,0,1-1.586-1.689,1.279,1.279,0,0,1,.633-2" transform="translate(7.022 4.718)" fill="#faf5f1"/>
        <path id="Pfad_72" data-name="Pfad 72" d="M78.54,45.939C78.3,59.58,72.84,70.589,61.9,78.851c-.9.679-1.919,1.356-2.7.308-.757-1.018.4-1.725,1.134-2.243A36.625,36.625,0,0,0,75.351,53.807,37.44,37.44,0,0,0,70,25.017c-.418-.653-.93-1.252-1.312-1.925-.422-.742-1.6-1.55-.322-2.381,1.061-.692,1.7.234,2.285,1.037A39.232,39.232,0,0,1,78.54,45.939" transform="translate(17.625 6.118)" fill="#faf5f1"/>
        <path id="Pfad_73" data-name="Pfad 73" d="M57.892,72.4a4.377,4.377,0,0,1-.746.891c-.742.534-1.324.017-1.825-.453-2.148-2.009-4.272-4.045-6.4-6.073-1.316-1.253-2.642-2.5-3.933-3.775a1.131,1.131,0,0,1-.149-1.637,1.086,1.086,0,0,1,1.633-.057c3.958,3.237,7.448,6.97,11.116,10.515a2.69,2.69,0,0,1,.307.588" transform="translate(13.318 18.22)" fill="#faf5f1"/>
      </g>
    </g>
  </g>
</svg>
