<svg xmlns="http://www.w3.org/2000/svg" width="24.258" height="30" viewBox="0 0 24.258 30">
  <g id="wYsOOQ.tif" transform="translate(-12 72.782)">
    <g id="Gruppe_14" data-name="Gruppe 14" transform="translate(0 -72.782)">
      <path id="Pfad_8" data-name="Pfad 8" d="M2725.1,6570.687a8.865,8.865,0,0,1,.945-4.223,8.254,8.254,0,0,1,3.554-3.279c.777-.408,1.219-.227,1.655.528q1.818,3.146,3.641,6.29a.542.542,0,0,1,.009.61,3.842,3.842,0,0,1-1.194,1.266,8.778,8.778,0,0,1-2.454,1.107c-.289.087-.379.181-.3.5a17.589,17.589,0,0,0,2.054,4.863,25.322,25.322,0,0,0,5.6,6.8c.361.3.753.556,1.139.822.193.133.286.086.42-.086a8.171,8.171,0,0,1,2.461-2.319,3.5,3.5,0,0,1,.445-.206c.831-.308.94-.275,1.507.4q2.167,2.585,4.336,5.169c.614.731.613,1.225-.109,1.868a7.514,7.514,0,0,1-7.243,1.9,15.827,15.827,0,0,1-6.437-3.6,30.845,30.845,0,0,1-9.165-13.614A15.843,15.843,0,0,1,2725.1,6570.687Z" transform="translate(-2713.099 -6562.973)" fill="#6c665a"/>
    </g>
  </g>
</svg>
