<svg xmlns="http://www.w3.org/2000/svg" width="157" height="158" viewBox="0 0 157 158">
  <g id="IC-Rajas" transform="translate(-881.5 -4884)">
    <ellipse id="Ellipse_30" data-name="Ellipse 30" cx="78.5" cy="79" rx="78.5" ry="79" transform="translate(881.5 4884)" fill="#d1c2bb" opacity="0.418"/>
    <g id="Gruppe_332" data-name="Gruppe 332" transform="translate(2520.184 6184.21)">
      <g id="Gruppe_327" data-name="Gruppe 327">
        <path id="Pfad_94" data-name="Pfad 94" d="M-1600.471-1247.922c0,9.647-3.473,9.647-3.473,19.3s3.473,9.648,3.473,19.3-3.473,9.649-3.473,19.3" fill="none" stroke="#6c665a" stroke-linecap="round" stroke-linejoin="round" stroke-width="4"/>
      </g>
      <g id="Gruppe_328" data-name="Gruppe 328">
        <path id="Pfad_95" data-name="Pfad 95" d="M-1579.631-1261.922c0,14.313-5.153,14.313-5.153,28.627s5.153,14.316,5.153,28.632-5.153,14.315-5.153,28.631" fill="none" stroke="#6c665a" stroke-linecap="round" stroke-linejoin="round" stroke-width="4"/>
      </g>
      <g id="Gruppe_329" data-name="Gruppe 329">
        <path id="Pfad_96" data-name="Pfad 96" d="M-1535.584-1261.922c0,14.313-5.154,14.313-5.154,28.627s5.154,14.316,5.154,28.632-5.154,14.315-5.154,28.631" fill="none" stroke="#6c665a" stroke-linecap="round" stroke-linejoin="round" stroke-width="4"/>
      </g>
      <g id="Gruppe_330" data-name="Gruppe 330">
        <path id="Pfad_97" data-name="Pfad 97" d="M-1516.424-1247.922c0,9.647-3.474,9.647-3.474,19.3s3.474,9.648,3.474,19.3-3.474,9.649-3.474,19.3" fill="none" stroke="#6c665a" stroke-linecap="round" stroke-linejoin="round" stroke-width="4"/>
      </g>
      <g id="Gruppe_331" data-name="Gruppe 331">
        <path id="Pfad_98" data-name="Pfad 98" d="M-1556.718-1276.744c0,19.254-6.932,19.254-6.932,38.508s6.932,19.256,6.932,38.513-6.932,19.256-6.932,38.513" fill="none" stroke="#6c665a" stroke-linecap="round" stroke-linejoin="round" stroke-width="4"/>
      </g>
    </g>
  </g>
</svg>
