<svg xmlns="http://www.w3.org/2000/svg" xmlns:xlink="http://www.w3.org/1999/xlink" width="157" height="158" viewBox="0 0 157 158">
  <defs>
    <clipPath id="clip-path">
      <rect id="Rechteck_226" data-name="Rechteck 226" width="111.002" height="103.414" fill="none"/>
    </clipPath>
  </defs>
  <g id="IC-Routine" transform="translate(-667 -3457.391)">
    <ellipse id="Ellipse_31" data-name="Ellipse 31" cx="78.5" cy="79" rx="78.5" ry="79" transform="translate(667 3457.391)" fill="#d1c2bb"/>
    <g id="Gruppe_47" data-name="Gruppe 47" transform="translate(689.842 3484.969)">
      <g id="Gruppe_294" data-name="Gruppe 294" transform="translate(0 0)" clip-path="url(#clip-path)">
        <path id="Pfad_74" data-name="Pfad 74" d="M42.811,100.275a77.307,77.307,0,0,1-9.936.127c-7.2-.5-12.023-4.221-14.993-10.609a63.145,63.145,0,0,1-3.535-9.764c-1.8-6.491-5.392-12.036-9.132-17.517C2.8,58.973.783,55.2.165,50.9c-.838-5.816,1.621-10.611,5.1-15A33.62,33.62,0,0,1,8.2,32.5,59.9,59.9,0,0,0,20.931,13.87a36.592,36.592,0,0,1,4.451-7.235C29.492,1.347,34.973-.679,41.469.2c5.542.749,11.016,2,16.558,2.735,6.368.84,12.772-.325,19.166-.044,7,.31,12.152,3.44,15.388,9.675a41.688,41.688,0,0,1,3.413,8.792c1.982,7.7,6.135,14.272,10.527,20.744a24.95,24.95,0,0,1,4.315,10.4c.774,5.34-1.258,9.888-4.411,14.043a59.049,59.049,0,0,1-5.58,6.424c-4.746,4.674-7.8,10.449-10.7,16.333-.938,1.9-2.052,3.726-3.172,5.53-4.571,7.367-11.331,9.6-19.569,8.178-3.728-.641-7.452-1.326-11.147-2.136-4.461-.978-8.952-.707-13.447-.6m21.459-.241a11.36,11.36,0,0,0,3.27-.466c3.915-1.174,6.722-3.818,8.966-7.014A59.458,59.458,0,0,1,95.033,74.947a22.786,22.786,0,0,0,3.134-2.509c5.162-4.434,6.613-9.973,4.089-16.195-3.658-9.018-6.4-18.087-7.2-27.955C94.181,17.6,91.118,15.173,80.538,13.183,76.9,12.5,73.2,12.119,69.567,11.424,63.84,10.329,58.935,7.113,53.582,5.04a17.559,17.559,0,0,0-8.523-1.508c-4.34.522-7.438,3.128-9.8,6.439a77.465,77.465,0,0,1-20.6,19.538c-7.284,4.845-8.61,10.832-5.385,19.458,1.46,3.907,3.382,7.628,4.593,11.636,1.683,5.575,1.3,11.416,2.282,17.087,1.027,5.927,4,10.024,9.922,11.644a38.956,38.956,0,0,0,5.565,1.077c6.992.853,13.837,2.073,20.185,5.438,3.885,2.059,7.954,3.842,12.456,4.184m-3.791-94.7c-.041.22-.084.441-.125.663,2.249.9,4.466,1.895,6.754,2.683,5.262,1.814,10.858,1.881,16.267,2.96a39.239,39.239,0,0,1,8,3.019c-2.228-4.782-5.313-8.007-10.252-9.2-6.9-1.668-13.76.072-20.641-.124M13.066,70.626a47.6,47.6,0,0,0-.632-7.535c-.83-3.9-2.62-7.416-4.117-11.053C6.656,48,5.3,43.886,5.693,38.936c-3.2,4.088-4.234,8.5-3.324,12.688,1.607,7.41,7.038,12.67,10.7,19m92.553-6.914a13.9,13.9,0,0,0,3.231-10.727,20.437,20.437,0,0,0-2.986-8.158c-2.527-4.116-5.2-8.144-7.81-12.209.064,3.909.175,7.654,1.5,11.269,2.367,6.448,6.243,12.455,6.063,19.824M50.81,98.029a28.48,28.48,0,0,0-10.269-4.251c-6.871-1.408-14.139-1.07-20.61-5.064a13.43,13.43,0,0,0,9.029,8.955c7.225,1.922,14.53.188,21.851.36M17.878,24.374a35.639,35.639,0,0,0,10.541-8.953c3.646-4.759,6.837-10.021,13-13.057-5.9-.854-10.342.652-13.853,4.762-4.348,5.091-6.427,11.47-9.692,17.248M93.2,78.974a33.01,33.01,0,0,0-9.29,7.39c-4.168,5.061-7.547,10.869-13.4,14.364-.065.039-.008.282-.008.638,5.369.355,9.855-1.215,13.3-5.494,4.078-5.07,6.1-11.29,9.4-16.9" transform="translate(0 0)" fill="#fff"/>
      </g>
    </g>
  </g>
</svg>
