<svg xmlns="http://www.w3.org/2000/svg" width="38.656" height="38.655" viewBox="0 0 38.656 38.655">
  <path id="Pfad_54" data-name="Pfad 54" d="M229.778,211.052c-.193.465-.415.92-.575,1.4q-5.7,17.054-11.377,34.114c-.221.663-.418,1.323-1.251,1.4-.791.072-1.1-.525-1.432-1.091-2.188-3.788-4.363-7.583-6.585-11.351a1.281,1.281,0,0,1,.079-1.686c2.858-3.81,5.664-7.659,8.485-11.5a1.746,1.746,0,0,0,.378-.879c-.275.189-.555.37-.823.567-3.811,2.8-7.633,5.592-11.416,8.433a1.281,1.281,0,0,1-1.686.078c-3.768-2.221-7.564-4.4-11.351-6.585-.565-.327-1.163-.637-1.1-1.429.071-.836.726-1.037,1.39-1.258q17.336-5.772,34.666-11.564a8.921,8.921,0,0,0,.855-.386h1.74Z" transform="translate(-191.123 -209.312)" fill="#d4c1ba"/>
</svg>
