<svg xmlns="http://www.w3.org/2000/svg" xmlns:xlink="http://www.w3.org/1999/xlink" width="157" height="158" viewBox="0 0 157 158">
  <defs>
    <clipPath id="clip-path">
      <rect id="Rechteck_228" data-name="Rechteck 228" width="94.367" height="93.331" fill="none"/>
    </clipPath>
  </defs>
  <g id="IC-Unease" transform="translate(-1473 -3457.391)">
    <ellipse id="Ellipse_34" data-name="Ellipse 34" cx="78.5" cy="79" rx="78.5" ry="79" transform="translate(1473 3457.391)" fill="#d1c2bb" opacity="0.229"/>
    <g id="Gruppe_49" data-name="Gruppe 49" transform="translate(1504.13 3490.01)">
      <g id="Gruppe_298" data-name="Gruppe 298" transform="translate(0 0)" clip-path="url(#clip-path)">
        <path id="Pfad_79" data-name="Pfad 79" d="M56.126,45.718c1.661,1.3,3.693,1.231,5.456,1.776,17.809,5.514,31.286,22.542,32.561,41.259.138,2.017-.689,2.676-2.594,2.693-17.879.173-35.964-11.875-42.793-28.562-.4-.971-1.076-2.221.26-2.768,1.352-.554,1.711.886,2.124,1.8,6.154,13.653,16.58,22.2,31.033,25.869,2.306.584,4.721.73,7.085,1.086,1.76.266,2.373-.363,2.144-2.213a44.582,44.582,0,0,0-37.053-38.2c-6.567-.991-6.567-.991-7.728,5.469C43.538,71.067,28.192,86.669,11.093,90.2A74.033,74.033,0,0,1,2.68,91.326c-1.784.161-2.59-.5-2.457-2.448A46.912,46.912,0,0,1,36.769,46.525a2.02,2.02,0,0,0,1.486-.867c-1.526-1.011-3.314-1.011-4.9-1.473C15.228,38.92,1.21,21.351.225,2.573.128.72.824-.045,2.69.108q28.386,2.327,40.8,27.942c1.441,2.963-1.074,2.966-2.573,3.2a24.863,24.863,0,0,1-19.55-4.82,32.559,32.559,0,0,1-9.1-10.937c-.473-.9-1.1-1.829.108-2.5,1.279-.708,1.642.531,2.09,1.312,3.245,5.64,7.267,10.452,13.5,12.993a24.121,24.121,0,0,0,10.936,1.591c1.752-.118,1.9-.822,1.149-2.189C32.437,12.816,20.745,4.939,5.092,2.841c-1.727-.231-2.368.121-2.069,2.105C5.945,24.31,19.063,38.475,38.268,42.818c1.288.292,2.683.17,3.941.538,2.464.721,3.08-.493,3.3-2.6A41.4,41.4,0,0,1,52.183,22.2C61.352,8.16,74.441.863,91.17.011c2.288-.117,3.182.656,2.93,3.1C92.021,23.259,79.148,38.83,59.743,44.621c-1.141.341-2.5-.039-3.616,1.1M49.4,43.755c1.053-.145,2.1-.316,3.157-.432,19.535-2.13,35.9-17.688,38.787-38.183.267-1.9-.15-2.581-2.132-2.425a46.2,46.2,0,0,0-9.9,1.788A44.672,44.672,0,0,0,47.775,41.83c-.175,1.294.066,2.136,1.627,1.924m-4.6,5.395c.131-.695-.239-1.5-1.928-1.189-1.912.359-3.89.464-5.755.985C17.942,54.305,6.478,66.691,3.05,86.411c-.344,1.974.011,2.529,2.09,2.266A44.817,44.817,0,0,0,30.174,77.489c8.218-7.407,12.945-16.67,14.63-28.339" transform="translate(0.069 -0.001)" fill="#6c665a"/>
        <path id="Pfad_80" data-name="Pfad 80" d="M38.615,71.838a47.677,47.677,0,0,1-14.826-2.592c-.942-.341-2.673-.486-2.025-2.125.525-1.329,1.87-.633,2.809-.316a43.649,43.649,0,0,0,31.338-.869c.87-.352,2.063-.889,2.554.323.57,1.4-.825,1.778-1.749,2.149a48.528,48.528,0,0,1-18.1,3.431" transform="translate(7.094 21.493)" fill="#6c665a"/>
        <path id="Pfad_81" data-name="Pfad 81" d="M5.294,20.854c1.517.517,1.02,1.582.627,2.562A47.609,47.609,0,0,0,3.3,32.575,43.78,43.78,0,0,0,4.857,54.318a5.184,5.184,0,0,1,.286.741c.145.981.939,2.3-.494,2.744-1.4.437-1.683-1.02-2-1.962a46.655,46.655,0,0,1,.742-32.977c.368-.928.692-1.83,1.9-2.011" transform="translate(0 6.842)" fill="#6c665a"/>
        <path id="Pfad_82" data-name="Pfad 82" d="M72.6,40.39a49.039,49.039,0,0,1-2.638,15.349c-.328.935-.594,2.45-1.938,2.068-1.576-.45-.865-1.881-.513-2.9a43.948,43.948,0,0,0-.587-30.875,7.294,7.294,0,0,1-.315-.73c-.218-.829-.73-1.826.413-2.29,1.088-.441,1.62.478,1.968,1.294a39.124,39.124,0,0,1,2.695,8.854A46.153,46.153,0,0,1,72.6,40.39" transform="translate(21.754 6.855)" fill="#6c665a"/>
      </g>
    </g>
  </g>
</svg>
