<svg xmlns="http://www.w3.org/2000/svg" width="169.084" height="169.084" viewBox="0 0 169.084 169.084">
  <g id="IC-Water" transform="translate(-402.616 1299.704)">
    <circle id="Ellipse_42" data-name="Ellipse 42" cx="82.542" cy="82.542" r="82.542" transform="translate(404.616 -1297.704)" fill="none" stroke="#d1c2bb" stroke-linecap="round" stroke-linejoin="round" stroke-width="4"/>
    <path id="Pfad_99" data-name="Pfad 99" d="M516.058-1216.01l-28.9-54.346-28.9,54.346a31.769,31.769,0,0,0-2.984,13.482,31.885,31.885,0,0,0,31.885,31.885,31.886,31.886,0,0,0,31.885-31.885A31.755,31.755,0,0,0,516.058-1216.01Z" fill="none" stroke="#d1c2bb" stroke-linecap="round" stroke-linejoin="round" stroke-width="4"/>
    <path id="Pfad_100" data-name="Pfad 100" d="M495.594-1209.189l-8.436-15.864-8.437,15.864a9.278,9.278,0,0,0-.871,3.935,9.308,9.308,0,0,0,9.308,9.308,9.307,9.307,0,0,0,9.307-9.308A9.263,9.263,0,0,0,495.594-1209.189Z" fill="none" stroke="#d1c2bb" stroke-linecap="round" stroke-linejoin="round" stroke-width="4"/>
    <line id="Linie_43" data-name="Linie 43" y2="27.348" transform="translate(487.158 -1297.704)" fill="none" stroke="#d1c2bb" stroke-linecap="round" stroke-linejoin="round" stroke-width="4"/>
    <line id="Linie_44" data-name="Linie 44" y2="38.023" transform="translate(487.158 -1170.643)" fill="none" stroke="#d1c2bb" stroke-linecap="round" stroke-linejoin="round" stroke-width="4"/>
  </g>
</svg>
