<svg xmlns="http://www.w3.org/2000/svg" width="169.084" height="169.084" viewBox="0 0 169.084 169.084">
  <g id="IC-Wind" transform="translate(-1036.757 1299.704)">
    <circle id="Ellipse_46" data-name="Ellipse 46" cx="82.542" cy="82.542" r="82.542" transform="translate(1038.757 -1297.704)" fill="none" stroke="#d1c2bb" stroke-linecap="round" stroke-linejoin="round" stroke-width="4"/>
    <path id="Pfad_103" data-name="Pfad 103" d="M1134.927-1155.825a26.523,26.523,0,0,0,26.523-26.523,21.218,21.218,0,0,0-21.218-21.218,16.974,16.974,0,0,0-16.975,16.974,13.58,13.58,0,0,0,13.58,13.58,10.864,10.864,0,0,0,10.864-10.864" fill="none" stroke="#d1c2bb" stroke-linecap="round" stroke-linejoin="round" stroke-width="4"/>
    <line id="Linie_47" data-name="Linie 47" x1="71.001" transform="translate(1063.926 -1155.825)" fill="none" stroke="#d1c2bb" stroke-linecap="round" stroke-linejoin="round" stroke-width="4"/>
    <path id="Pfad_104" data-name="Pfad 104" d="M1147.763-1217.039a26.106,26.106,0,0,0,26.106-26.106,20.885,20.885,0,0,0-20.885-20.884,16.707,16.707,0,0,0-16.707,16.707,13.366,13.366,0,0,0,13.366,13.366,10.692,10.692,0,0,0,10.692-10.693" fill="none" stroke="#d1c2bb" stroke-linecap="round" stroke-linejoin="round" stroke-width="4"/>
    <line id="Linie_48" data-name="Linie 48" x1="30.188" transform="translate(1117.575 -1217.039)" fill="none" stroke="#d1c2bb" stroke-linecap="round" stroke-linejoin="round" stroke-width="4"/>
    <path id="Pfad_105" data-name="Pfad 105" d="M1082.307-1185.941a35.9,35.9,0,0,0,35.9-35.9,28.717,28.717,0,0,0-28.718-28.718,22.974,22.974,0,0,0-22.974,22.974,18.38,18.38,0,0,0,18.379,18.38,14.7,14.7,0,0,0,14.7-14.7" fill="none" stroke="#d1c2bb" stroke-linecap="round" stroke-linejoin="round" stroke-width="4"/>
    <line id="Linie_49" data-name="Linie 49" x1="38.223" transform="translate(1044.084 -1185.941)" fill="none" stroke="#d1c2bb" stroke-linecap="round" stroke-linejoin="round" stroke-width="4"/>
  </g>
</svg>
