<svg xmlns="http://www.w3.org/2000/svg" viewBox="0 0 944.78 1277.58">
    <g id="ab513bbe-d908-4170-9332-6f3ace3a8489" data-name="Ebene 2">
        <g id="a1c4255e-a3e9-47d9-b6a2-6c4b7f7f908d" data-name="Ebene 1">
            <g id="b9059976-739d-4e50-b1af-6aba21ce76c9" data-name="Vereinigungsmenge 4"><path
                d="M944.09,1276.9H.69V471.24A479.07,479.07,0,0,1,3.2,423.11c1.62-15.64,4.05-31.37,7.22-46.73A468.37,468.37,0,0,1,81.53,208.11,473.18,473.18,0,0,1,289,37.65,468.77,468.77,0,0,1,424.21,3.12a478.85,478.85,0,0,1,96.36,0,470.68,470.68,0,0,1,421,420,476.14,476.14,0,0,1,2.52,48.13V1276.9Z"/><path
                d="M943.4,1276.21v-805a473.26,473.26,0,0,0-9.71-94.72,468,468,0,0,0-71-168A472.27,472.27,0,0,0,655.54,38.29a468.72,468.72,0,0,0-88.32-27.37,476.09,476.09,0,0,0-189.66,0A468.71,468.71,0,0,0,209.29,81.6,472.19,472.19,0,0,0,38.63,288.31a468.17,468.17,0,0,0-27.54,88.21,473.26,473.26,0,0,0-9.71,94.72v805h942m1.38,1.37H0V471.24C.46,210.9,211.78,0,472.39,0S944.31,210.9,944.78,471.24h0Z"/></g>
        </g>
    </g>
</svg>