<svg xmlns="http://www.w3.org/2000/svg" width="418.412" height="418.519" viewBox="0 0 418.412 418.519">
  <g id="IC-3-Qualities" transform="translate(1673.042 1480.053)">
    <path id="Pfad_86" data-name="Pfad 86" d="M-1416.082-1298.791a96.058,96.058,0,0,1-131.217-35.16,96.057,96.057,0,0,1,35.16-131.216,95.615,95.615,0,0,1,48.028-12.886" fill="none" stroke="#e5dbd5" stroke-linecap="round" stroke-linejoin="round" stroke-width="4"/>
    <path id="Pfad_87" data-name="Pfad 87" d="M-1512.156-1298.825A96.058,96.058,0,0,1-1477-1167.608a96.057,96.057,0,0,1-131.216,35.16,95.613,95.613,0,0,1-35.174-35.151" fill="none" stroke="#e5dbd5" stroke-linecap="round" stroke-linejoin="round" stroke-width="4"/>
    <path id="Pfad_88" data-name="Pfad 88" d="M-1464.111-1215.033a96.057,96.057,0,0,1,96.057-96.057A96.057,96.057,0,0,1-1272-1215.033,95.613,95.613,0,0,1-1284.851-1167" fill="none" stroke="#e5dbd5" stroke-linecap="round" stroke-linejoin="round" stroke-width="4"/>
    <circle id="Ellipse_37" data-name="Ellipse 37" cx="207.206" cy="207.206" r="207.206" transform="translate(-1671.042 -1477.945)" fill="none" stroke="#e5dbd5" stroke-linecap="round" stroke-linejoin="round" stroke-width="4"/>
    <line id="Linie_1" data-name="Linie 1" y2="28.177" transform="translate(-1464.111 -1441.979)" fill="none" stroke="#e5dbd5" stroke-linecap="round" stroke-linejoin="round" stroke-width="4"/>
    <line id="Linie_2" data-name="Linie 2" y2="28.177" transform="translate(-1464.111 -1350.156)" fill="none" stroke="#e5dbd5" stroke-linecap="round" stroke-linejoin="round" stroke-width="4"/>
    <line id="Linie_3" data-name="Linie 3" x2="28.177" transform="translate(-1524.111 -1381.979)" fill="none" stroke="#e5dbd5" stroke-linecap="round" stroke-linejoin="round" stroke-width="4"/>
    <line id="Linie_4" data-name="Linie 4" x2="28.177" transform="translate(-1432.288 -1381.979)" fill="none" stroke="#e5dbd5" stroke-linecap="round" stroke-linejoin="round" stroke-width="4"/>
    <line id="Linie_5" data-name="Linie 5" x2="19.924" y2="19.924" transform="translate(-1506.537 -1424.406)" fill="none" stroke="#e5dbd5" stroke-linecap="round" stroke-linejoin="round" stroke-width="4"/>
    <line id="Linie_6" data-name="Linie 6" x2="19.924" y2="19.924" transform="translate(-1441.609 -1359.477)" fill="none" stroke="#e5dbd5" stroke-linecap="round" stroke-linejoin="round" stroke-width="4"/>
    <line id="Linie_7" data-name="Linie 7" y1="19.924" x2="19.924" transform="translate(-1506.537 -1359.477)" fill="none" stroke="#e5dbd5" stroke-linecap="round" stroke-linejoin="round" stroke-width="4"/>
    <line id="Linie_8" data-name="Linie 8" y1="19.924" x2="19.924" transform="translate(-1441.609 -1424.406)" fill="none" stroke="#e5dbd5" stroke-linecap="round" stroke-linejoin="round" stroke-width="4"/>
    <line id="Linie_9" data-name="Linie 9" x2="26.032" y2="10.783" transform="translate(-1519.544 -1404.94)" fill="none" stroke="#e5dbd5" stroke-linecap="round" stroke-linejoin="round" stroke-width="4"/>
    <line id="Linie_10" data-name="Linie 10" x2="26.032" y2="10.783" transform="translate(-1434.71 -1369.801)" fill="none" stroke="#e5dbd5" stroke-linecap="round" stroke-linejoin="round" stroke-width="4"/>
    <line id="Linie_11" data-name="Linie 11" y1="26.032" x2="10.783" transform="translate(-1487.072 -1352.579)" fill="none" stroke="#e5dbd5" stroke-linecap="round" stroke-linejoin="round" stroke-width="4"/>
    <line id="Linie_12" data-name="Linie 12" y1="26.032" x2="10.783" transform="translate(-1451.933 -1437.412)" fill="none" stroke="#e5dbd5" stroke-linecap="round" stroke-linejoin="round" stroke-width="4"/>
    <line id="Linie_13" data-name="Linie 13" y1="10.783" x2="26.032" transform="translate(-1519.544 -1369.801)" fill="none" stroke="#e5dbd5" stroke-linecap="round" stroke-linejoin="round" stroke-width="4"/>
    <line id="Linie_14" data-name="Linie 14" y1="10.783" x2="26.032" transform="translate(-1434.71 -1404.94)" fill="none" stroke="#e5dbd5" stroke-linecap="round" stroke-linejoin="round" stroke-width="4"/>
    <line id="Linie_15" data-name="Linie 15" x1="10.783" y1="26.032" transform="translate(-1451.933 -1352.579)" fill="none" stroke="#e5dbd5" stroke-linecap="round" stroke-linejoin="round" stroke-width="4"/>
    <line id="Linie_16" data-name="Linie 16" x1="10.783" y1="26.032" transform="translate(-1487.072 -1437.412)" fill="none" stroke="#e5dbd5" stroke-linecap="round" stroke-linejoin="round" stroke-width="4"/>
    <g id="Gruppe_320" data-name="Gruppe 320">
      <path id="Pfad_89" data-name="Pfad 89" d="M-1600.471-1247.922c0,9.647-3.473,9.647-3.473,19.3s3.473,9.648,3.473,19.3-3.473,9.649-3.473,19.3" fill="none" stroke="#e5dbd5" stroke-linecap="round" stroke-linejoin="round" stroke-width="4"/>
    </g>
    <g id="Gruppe_321" data-name="Gruppe 321">
      <path id="Pfad_90" data-name="Pfad 90" d="M-1579.631-1261.922c0,14.313-5.153,14.313-5.153,28.627s5.153,14.316,5.153,28.632-5.153,14.315-5.153,28.631" fill="none" stroke="#e5dbd5" stroke-linecap="round" stroke-linejoin="round" stroke-width="4"/>
    </g>
    <g id="Gruppe_322" data-name="Gruppe 322">
      <path id="Pfad_91" data-name="Pfad 91" d="M-1535.584-1261.922c0,14.313-5.154,14.313-5.154,28.627s5.154,14.316,5.154,28.632-5.154,14.315-5.154,28.631" fill="none" stroke="#e5dbd5" stroke-linecap="round" stroke-linejoin="round" stroke-width="4"/>
    </g>
    <g id="Gruppe_323" data-name="Gruppe 323">
      <path id="Pfad_92" data-name="Pfad 92" d="M-1516.424-1247.922c0,9.647-3.474,9.647-3.474,19.3s3.474,9.648,3.474,19.3-3.474,9.649-3.474,19.3" fill="none" stroke="#e5dbd5" stroke-linecap="round" stroke-linejoin="round" stroke-width="4"/>
    </g>
    <g id="Gruppe_324" data-name="Gruppe 324">
      <path id="Pfad_93" data-name="Pfad 93" d="M-1556.718-1276.744c0,19.254-6.932,19.254-6.932,38.508s6.932,19.256,6.932,38.513-6.932,19.256-6.932,38.513" fill="none" stroke="#e5dbd5" stroke-linecap="round" stroke-linejoin="round" stroke-width="4"/>
    </g>
    <line id="Linie_17" data-name="Linie 17" x1="57.891" transform="translate(-1393.495 -1259.513)" fill="none" stroke="#e5dbd5" stroke-linecap="round" stroke-linejoin="round" stroke-width="4"/>
    <line id="Linie_18" data-name="Linie 18" x1="85.891" transform="translate(-1407.495 -1239.513)" fill="none" stroke="#e5dbd5" stroke-linecap="round" stroke-linejoin="round" stroke-width="4"/>
    <line id="Linie_19" data-name="Linie 19" x1="85.891" transform="translate(-1407.495 -1195.466)" fill="none" stroke="#e5dbd5" stroke-linecap="round" stroke-linejoin="round" stroke-width="4"/>
    <line id="Linie_20" data-name="Linie 20" x1="57.891" transform="translate(-1393.495 -1175.466)" fill="none" stroke="#e5dbd5" stroke-linecap="round" stroke-linejoin="round" stroke-width="4"/>
    <line id="Linie_21" data-name="Linie 21" x1="115.534" transform="translate(-1422.317 -1217.49)" fill="none" stroke="#e5dbd5" stroke-linecap="round" stroke-linejoin="round" stroke-width="4"/>
  </g>
</svg>
